<svg xmlns="http://www.w3.org/2000/svg" viewBox="0 0 24 24" fill="none">
  <!-- Filled bubble (accent) -->
  <path
    d="M8 10 h12 a2.5 2.5 0 0 1 2.5 2.5 v5 a2.5 2.5 0 0 1 -2.5 2.5 h-7.5 l-2.8 2.2 a0.4 0.4 0 0 1 -0.65 -0.31 v-1.89 h-1.05 a2.5 2.5 0 0 1 -2.5 -2.5 v-5 a2.5 2.5 0 0 1 2.5 -2.5 z"
    fill="#a78bfa"
  />
  <!-- Outlined bubble (paper) -->
  <path
    d="M4 2 h12 a2.5 2.5 0 0 1 2.5 2.5 v5 a2.5 2.5 0 0 1 -2.5 2.5 h-7.5 l-2.8 2.2 a0.4 0.4 0 0 1 -0.65 -0.31 v-1.89 h-1.05 a2.5 2.5 0 0 1 -2.5 -2.5 v-5 a2.5 2.5 0 0 1 2.5 -2.5 z"
    fill="#0e0e10"
    stroke="#f4f2ed"
    stroke-width="1.4"
    stroke-linejoin="round"
  />
</svg>
